<svg xmlns="http://www.w3.org/2000/svg" version="1.1" xmlns:xlink="http://www.w3.org/1999/xlink" xmlns:svgjs="http://svgjs.com/svgjs" width="1920" height="1080" preserveAspectRatio="none" viewBox="0 0 1920 1080">
    <g mask="url(&quot;#SvgjsMask14581&quot;)" fill="none">
        <rect width="178.92" height="178.92" clip-path="url(&quot;#SvgjsClipPath14582&quot;)" x="479.14" y="249.56" fill="url(#SvgjsPattern14583)" transform="rotate(198.83, 568.6, 339.02)"></rect>
        <path d="M994.49 941.05 L923.16 635.85L793.1252191245089 954.1497808754912z" fill="rgba(178, 157, 198, 1)"></path>
        <rect width="496.15999999999997" height="496.15999999999997" clip-path="url(&quot;#SvgjsClipPath14584&quot;)" x="-89.74" y="60.84" fill="url(#SvgjsPattern14585)" transform="rotate(171.25, 158.34, 308.92)"></rect>
        <rect width="540" height="540" clip-path="url(&quot;#SvgjsClipPath14586&quot;)" x="981.11" y="598.32" fill="url(#SvgjsPattern14587)" transform="rotate(239.94, 1251.11, 868.32)"></rect>
        <rect width="60" height="60" clip-path="url(&quot;#SvgjsClipPath14588&quot;)" x="490.91" y="339.59" fill="url(#SvgjsPattern14589)" transform="rotate(95.82, 520.91, 369.59)"></rect>
        <path d="M1603.26 534.78L1591.32 530.13 1593.24 517.47 1581.31 512.82 1583.23 500.15 1571.3 495.5 1573.22 482.84M1610.18 530.78L1598.25 526.12 1600.17 513.46 1588.24 508.81 1590.16 496.15 1578.23 491.5 1580.15 478.84M1617.11 526.77L1605.18 522.12 1607.09 509.46 1595.16 504.81 1597.08 492.15 1585.15 487.49 1587.07 474.83" stroke="rgba(178, 157, 198, 1)" stroke-width="1.42" stroke-dasharray="3, 3"></path>
        <rect width="708" height="708" clip-path="url(&quot;#SvgjsClipPath14590&quot;)" x="-89.74" y="39.3" fill="url(#SvgjsPattern14591)" transform="rotate(9.28, 264.26, 393.3)"></rect>
        <rect width="98.8" height="98.8" clip-path="url(&quot;#SvgjsClipPath14592&quot;)" x="1438.01" y="792.23" fill="url(#SvgjsPattern14593)" transform="rotate(120.05, 1487.41, 841.63)"></rect>
    </g>
    <defs>
        <mask id="SvgjsMask14581">
            <rect width="1920" height="1080" fill="rgba(255,255,255,0.25)"></rect>
        </mask>
        <pattern x="0" y="0" width="9.94" height="9.94" patternUnits="userSpaceOnUse" id="SvgjsPattern14583">
            <path d="M4.97 1L4.97 8.94M1 4.97L8.94 4.97" stroke="rgba(178, 157, 198, 1)" fill="none" stroke-width="2.02"></path>
        </pattern>
        <clipPath id="SvgjsClipPath14582">
            <circle r="44.73" cx="568.6" cy="339.02"></circle>
        </clipPath>
        <pattern x="0" y="0" width="8.86" height="8.86" patternUnits="userSpaceOnUse" id="SvgjsPattern14585">
            <path d="M0 8.86L4.43 0L8.86 8.86" stroke="rgba(178, 157, 198, 1)" fill="none"></path>
        </pattern>
        <clipPath id="SvgjsClipPath14584">
            <circle r="124.03999999999999" cx="158.34" cy="308.92"></circle>
        </clipPath>
        <pattern x="0" y="0" width="6" height="6" patternUnits="userSpaceOnUse" id="SvgjsPattern14587">
            <path d="M3 1L3 5M1 3L5 3" stroke="rgba(178, 157, 198, 1)" fill="none" stroke-width="1"></path>
        </pattern>
        <clipPath id="SvgjsClipPath14586">
            <circle r="135" cx="1251.11" cy="868.32"></circle>
        </clipPath>
        <pattern x="0" y="0" width="6" height="6" patternUnits="userSpaceOnUse" id="SvgjsPattern14589">
            <path d="M0 6L3 0L6 6" stroke="rgba(178, 157, 198, 1)" fill="none"></path>
        </pattern>
        <clipPath id="SvgjsClipPath14588">
            <circle r="15" cx="520.91" cy="369.59"></circle>
        </clipPath>
        <pattern x="0" y="0" width="6" height="6" patternUnits="userSpaceOnUse" id="SvgjsPattern14591">
            <path d="M0 6L3 0L6 6" stroke="rgba(178, 157, 198, 1)" fill="none"></path>
        </pattern>
        <clipPath id="SvgjsClipPath14590">
            <circle r="177" cx="264.26" cy="393.3"></circle>
        </clipPath>
        <pattern x="0" y="0" width="9.88" height="9.88" patternUnits="userSpaceOnUse" id="SvgjsPattern14593">
            <path d="M4.94 1L4.94 8.88M1 4.94L8.88 4.94" stroke="rgba(178, 157, 198, 1)" fill="none" stroke-width="3.09"></path>
        </pattern>
        <clipPath id="SvgjsClipPath14592">
            <circle r="24.7" cx="1487.41" cy="841.63"></circle>
        </clipPath>
    </defs>
    <g mask="url(&quot;#SvgjsMask1630&quot;)" fill="none">
        <g mask="url(&quot;#SvgjsMask1631&quot;)">
            <path d="M1831.5 536.5L1794.5 573.5L1757.5 573.5L1720.5 536.5L1683.5 536.5M1942.5 536.5L1905.5 536.5L1868.5 536.5L1831.5 536.5L1794.5 536.5" stroke="rgba(255,255,255,0.25)" stroke-width="6.17"></path>
            <path d="M1785.25 536.5 a9.25 9.25 0 1 0 18.5 0 a9.25 9.25 0 1 0 -18.5 0zM1674.25 536.5 a9.25 9.25 0 1 0 18.5 0 a9.25 9.25 0 1 0 -18.5 0z" fill="rgba(255,255,255,0.25)"></path>
            <path d="M1905.5 573.5L1868.5 610.5M1942.5 573.5L1905.5 573.5L1868.5 573.5" stroke="rgba(255,255,255,0.25)" stroke-width="6.17"></path>
            <path d="M1859.25 573.5 a9.25 9.25 0 1 0 18.5 0 a9.25 9.25 0 1 0 -18.5 0zM1859.25 610.5 a9.25 9.25 0 1 0 18.5 0 a9.25 9.25 0 1 0 -18.5 0z" fill="rgba(255,255,255,0.25)"></path>
            <path d="M1498.5 499.5L1461.5 462.5L1424.5 462.5L1387.5 462.5L1350.5 462.5M1572.5 499.5L1535.5 462.5L1498.5 462.5L1461.5 425.5M1683.5 499.5L1646.5 462.5L1609.5 462.5M1942.5 499.5L1905.5 499.5L1868.5 499.5L1831.5 499.5L1794.5 499.5L1757.5 499.5L1720.5 499.5L1683.5 499.5L1646.5 499.5L1609.5 499.5L1572.5 499.5L1535.5 499.5L1498.5 499.5L1461.5 499.5L1424.5 499.5" stroke="rgba(255,255,255,0.25)" stroke-width="6.17"></path>
            <path d="M1415.25 499.5 a9.25 9.25 0 1 0 18.5 0 a9.25 9.25 0 1 0 -18.5 0zM1341.25 462.5 a9.25 9.25 0 1 0 18.5 0 a9.25 9.25 0 1 0 -18.5 0zM1452.25 425.5 a9.25 9.25 0 1 0 18.5 0 a9.25 9.25 0 1 0 -18.5 0zM1600.25 462.5 a9.25 9.25 0 1 0 18.5 0 a9.25 9.25 0 1 0 -18.5 0z" fill="rgba(255,255,255,0.25)"></path>
            <path d="M1942.5 462.5L1905.5 462.5L1868.5 462.5L1831.5 462.5" stroke="rgba(255,255,255,0.25)" stroke-width="6.17"></path>
            <path d="M1822.25 462.5 a9.25 9.25 0 1 0 18.5 0 a9.25 9.25 0 1 0 -18.5 0z" fill="rgba(255,255,255,0.25)"></path>
            <path d="M1942.5 647.5L1905.5 647.5" stroke="rgba(255,255,255,0.25)" stroke-width="6.17"></path>
            <path d="M1896.25 647.5 a9.25 9.25 0 1 0 18.5 0 a9.25 9.25 0 1 0 -18.5 0z" fill="rgba(255,255,255,0.25)"></path>
            <path d="M1942.5 425.5L1905.5 425.5L1868.5 425.5L1831.5 425.5L1794.5 425.5" stroke="rgba(255,255,255,0.25)" stroke-width="6.17"></path>
            <path d="M1785.25 425.5 a9.25 9.25 0 1 0 18.5 0 a9.25 9.25 0 1 0 -18.5 0z" fill="rgba(255,255,255,0.25)"></path>
            <path d="M1683.5 684.5L1646.5 647.5L1609.5 647.5M1757.5 684.5L1720.5 647.5L1683.5 647.5L1646.5 610.5M1572.5 721.5L1535.5 758.5M1942.5 684.5L1905.5 684.5L1868.5 684.5L1831.5 684.5L1794.5 684.5L1757.5 684.5L1720.5 684.5L1683.5 684.5L1646.5 684.5L1609.5 721.5L1572.5 721.5L1535.5 721.5L1498.5 721.5L1461.5 721.5L1424.5 721.5" stroke="rgba(255,255,255,0.25)" stroke-width="6.17"></path>
            <path d="M1415.25 721.5 a9.25 9.25 0 1 0 18.5 0 a9.25 9.25 0 1 0 -18.5 0zM1600.25 647.5 a9.25 9.25 0 1 0 18.5 0 a9.25 9.25 0 1 0 -18.5 0zM1637.25 610.5 a9.25 9.25 0 1 0 18.5 0 a9.25 9.25 0 1 0 -18.5 0zM1526.25 758.5 a9.25 9.25 0 1 0 18.5 0 a9.25 9.25 0 1 0 -18.5 0z" fill="rgba(255,255,255,0.25)"></path>
            <path d="M1942.5 388.5L1905.5 388.5" stroke="rgba(255,255,255,0.25)" stroke-width="6.17"></path>
            <path d="M1896.25 388.5 a9.25 9.25 0 1 0 18.5 0 a9.25 9.25 0 1 0 -18.5 0z" fill="rgba(255,255,255,0.25)"></path>
            <path d="M1942.5 721.5L1905.5 721.5L1868.5 721.5L1831.5 721.5L1794.5 721.5L1757.5 721.5L1720.5 721.5" stroke="rgba(255,255,255,0.25)" stroke-width="6.17"></path>
            <path d="M1711.25 721.5 a9.25 9.25 0 1 0 18.5 0 a9.25 9.25 0 1 0 -18.5 0z" fill="rgba(255,255,255,0.25)"></path>
            <path d="M1461.5 277.5L1424.5 314.5L1387.5 351.5L1350.5 351.5L1313.5 351.5M1831.5 351.5L1794.5 388.5M1350.5 314.5L1313.5 277.5L1276.5 277.5L1239.5 277.5L1202.5 314.5L1165.5 314.5L1128.5 314.5M1572.5 314.5L1535.5 314.5M1942.5 351.5L1905.5 351.5L1868.5 351.5L1831.5 351.5L1794.5 351.5L1757.5 351.5L1720.5 351.5L1683.5 351.5L1646.5 351.5L1609.5 351.5L1572.5 314.5L1535.5 277.5L1498.5 277.5L1461.5 277.5L1424.5 277.5L1387.5 314.5L1350.5 314.5L1313.5 314.5" stroke="rgba(255,255,255,0.25)" stroke-width="6.17"></path>
            <path d="M1304.25 314.5 a9.25 9.25 0 1 0 18.5 0 a9.25 9.25 0 1 0 -18.5 0zM1304.25 351.5 a9.25 9.25 0 1 0 18.5 0 a9.25 9.25 0 1 0 -18.5 0zM1785.25 388.5 a9.25 9.25 0 1 0 18.5 0 a9.25 9.25 0 1 0 -18.5 0zM1119.25 314.5 a9.25 9.25 0 1 0 18.5 0 a9.25 9.25 0 1 0 -18.5 0zM1526.25 314.5 a9.25 9.25 0 1 0 18.5 0 a9.25 9.25 0 1 0 -18.5 0z" fill="rgba(255,255,255,0.25)"></path>
            <path d="M1868.5 758.5L1831.5 795.5L1794.5 795.5L1757.5 795.5M1942.5 758.5L1905.5 758.5L1868.5 758.5L1831.5 758.5L1794.5 758.5" stroke="rgba(255,255,255,0.25)" stroke-width="6.17"></path>
            <path d="M1785.25 758.5 a9.25 9.25 0 1 0 18.5 0 a9.25 9.25 0 1 0 -18.5 0zM1748.25 795.5 a9.25 9.25 0 1 0 18.5 0 a9.25 9.25 0 1 0 -18.5 0z" fill="rgba(255,255,255,0.25)"></path>
            <path d="M1942.5 314.5L1905.5 314.5L1868.5 314.5L1831.5 314.5L1794.5 314.5L1757.5 314.5L1720.5 314.5L1683.5 314.5L1646.5 314.5L1609.5 314.5L1572.5 277.5L1535.5 240.5" stroke="rgba(255,255,255,0.25)" stroke-width="6.17"></path>
            <path d="M1526.25 240.5 a9.25 9.25 0 1 0 18.5 0 a9.25 9.25 0 1 0 -18.5 0z" fill="rgba(255,255,255,0.25)"></path>
            <path d="M1831.5 832.5L1794.5 869.5L1757.5 869.5L1720.5 869.5M1905.5 795.5L1868.5 795.5M1720.5 832.5L1683.5 832.5L1646.5 832.5L1609.5 832.5M1942.5 795.5L1905.5 795.5L1868.5 832.5L1831.5 832.5L1794.5 832.5L1757.5 832.5L1720.5 832.5L1683.5 795.5" stroke="rgba(255,255,255,0.25)" stroke-width="6.17"></path>
            <path d="M1674.25 795.5 a9.25 9.25 0 1 0 18.5 0 a9.25 9.25 0 1 0 -18.5 0zM1711.25 869.5 a9.25 9.25 0 1 0 18.5 0 a9.25 9.25 0 1 0 -18.5 0zM1859.25 795.5 a9.25 9.25 0 1 0 18.5 0 a9.25 9.25 0 1 0 -18.5 0zM1600.25 832.5 a9.25 9.25 0 1 0 18.5 0 a9.25 9.25 0 1 0 -18.5 0z" fill="rgba(255,255,255,0.25)"></path>
            <path d="M1646.5 277.5L1609.5 240.5L1572.5 203.5M1868.5 277.5L1831.5 240.5L1794.5 240.5M1905.5 277.5L1868.5 240.5M1942.5 277.5L1905.5 277.5L1868.5 277.5L1831.5 277.5L1794.5 277.5L1757.5 277.5L1720.5 277.5L1683.5 277.5L1646.5 277.5L1609.5 277.5L1572.5 240.5L1535.5 203.5L1498.5 203.5" stroke="rgba(255,255,255,0.25)" stroke-width="6.17"></path>
            <path d="M1489.25 203.5 a9.25 9.25 0 1 0 18.5 0 a9.25 9.25 0 1 0 -18.5 0zM1563.25 203.5 a9.25 9.25 0 1 0 18.5 0 a9.25 9.25 0 1 0 -18.5 0zM1785.25 240.5 a9.25 9.25 0 1 0 18.5 0 a9.25 9.25 0 1 0 -18.5 0zM1859.25 240.5 a9.25 9.25 0 1 0 18.5 0 a9.25 9.25 0 1 0 -18.5 0z" fill="rgba(255,255,255,0.25)"></path>
        </g>
    </g>
    <defs>
        <mask id="SvgjsMask1630">
            <rect width="1920" height="1080" fill="#ffffff"></rect>
        </mask>
        <mask id="SvgjsMask1631">
            <rect width="1920" height="1080" fill="white"></rect>
            <path d="M1789.87 536.5 a4.63 4.63 0 1 0 9.26 0 a4.63 4.63 0 1 0 -9.26 0zM1678.87 536.5 a4.63 4.63 0 1 0 9.26 0 a4.63 4.63 0 1 0 -9.26 0z" fill="black"></path>
            <path d="M1863.87 573.5 a4.63 4.63 0 1 0 9.26 0 a4.63 4.63 0 1 0 -9.26 0zM1863.87 610.5 a4.63 4.63 0 1 0 9.26 0 a4.63 4.63 0 1 0 -9.26 0z" fill="black"></path>
            <path d="M1419.87 499.5 a4.63 4.63 0 1 0 9.26 0 a4.63 4.63 0 1 0 -9.26 0zM1345.87 462.5 a4.63 4.63 0 1 0 9.26 0 a4.63 4.63 0 1 0 -9.26 0zM1456.87 425.5 a4.63 4.63 0 1 0 9.26 0 a4.63 4.63 0 1 0 -9.26 0zM1604.87 462.5 a4.63 4.63 0 1 0 9.26 0 a4.63 4.63 0 1 0 -9.26 0z" fill="black"></path>
            <path d="M1826.87 462.5 a4.63 4.63 0 1 0 9.26 0 a4.63 4.63 0 1 0 -9.26 0z" fill="black"></path>
            <path d="M1900.87 647.5 a4.63 4.63 0 1 0 9.26 0 a4.63 4.63 0 1 0 -9.26 0z" fill="black"></path>
            <path d="M1789.87 425.5 a4.63 4.63 0 1 0 9.26 0 a4.63 4.63 0 1 0 -9.26 0z" fill="black"></path>
            <path d="M1419.87 721.5 a4.63 4.63 0 1 0 9.26 0 a4.63 4.63 0 1 0 -9.26 0zM1604.87 647.5 a4.63 4.63 0 1 0 9.26 0 a4.63 4.63 0 1 0 -9.26 0zM1641.87 610.5 a4.63 4.63 0 1 0 9.26 0 a4.63 4.63 0 1 0 -9.26 0zM1530.87 758.5 a4.63 4.63 0 1 0 9.26 0 a4.63 4.63 0 1 0 -9.26 0z" fill="black"></path>
            <path d="M1900.87 388.5 a4.63 4.63 0 1 0 9.26 0 a4.63 4.63 0 1 0 -9.26 0z" fill="black"></path>
            <path d="M1715.87 721.5 a4.63 4.63 0 1 0 9.26 0 a4.63 4.63 0 1 0 -9.26 0z" fill="black"></path>
            <path d="M1308.87 314.5 a4.63 4.63 0 1 0 9.26 0 a4.63 4.63 0 1 0 -9.26 0zM1308.87 351.5 a4.63 4.63 0 1 0 9.26 0 a4.63 4.63 0 1 0 -9.26 0zM1789.87 388.5 a4.63 4.63 0 1 0 9.26 0 a4.63 4.63 0 1 0 -9.26 0zM1123.87 314.5 a4.63 4.63 0 1 0 9.26 0 a4.63 4.63 0 1 0 -9.26 0zM1530.87 314.5 a4.63 4.63 0 1 0 9.26 0 a4.63 4.63 0 1 0 -9.26 0z" fill="black"></path>
            <path d="M1789.87 758.5 a4.63 4.63 0 1 0 9.26 0 a4.63 4.63 0 1 0 -9.26 0zM1752.87 795.5 a4.63 4.63 0 1 0 9.26 0 a4.63 4.63 0 1 0 -9.26 0z" fill="black"></path>
            <path d="M1530.87 240.5 a4.63 4.63 0 1 0 9.26 0 a4.63 4.63 0 1 0 -9.26 0z" fill="black"></path>
            <path d="M1678.87 795.5 a4.63 4.63 0 1 0 9.26 0 a4.63 4.63 0 1 0 -9.26 0zM1715.87 869.5 a4.63 4.63 0 1 0 9.26 0 a4.63 4.63 0 1 0 -9.26 0zM1863.87 795.5 a4.63 4.63 0 1 0 9.26 0 a4.63 4.63 0 1 0 -9.26 0zM1604.87 832.5 a4.63 4.63 0 1 0 9.26 0 a4.63 4.63 0 1 0 -9.26 0z" fill="black"></path>
            <path d="M1493.87 203.5 a4.63 4.63 0 1 0 9.26 0 a4.63 4.63 0 1 0 -9.26 0zM1567.87 203.5 a4.63 4.63 0 1 0 9.26 0 a4.63 4.63 0 1 0 -9.26 0zM1789.87 240.5 a4.63 4.63 0 1 0 9.26 0 a4.63 4.63 0 1 0 -9.26 0zM1863.87 240.5 a4.63 4.63 0 1 0 9.26 0 a4.63 4.63 0 1 0 -9.26 0z" fill="black"></path>
        </mask>
    </defs>
</svg>